<?xml version="1.0" encoding="UTF-8"?>
<svg id="Layer_1" data-name="Layer 1" xmlns="http://www.w3.org/2000/svg" viewBox="0 0 83.68 58.19">
  <defs>
    <style>
      .cls-1 {
        stroke: #31a84e;
      }

      .cls-1, .cls-2, .cls-3, .cls-4 {
        fill: none;
        stroke-miterlimit: 10;
        stroke-width: 3px;
      }

      .cls-2 {
        stroke: #f4bb19;
      }

      .cls-3 {
        stroke: #ea4435;
      }

      .cls-4 {
        stroke: #547dbf;
      }
    </style>
  </defs>
  <g>
    <path class="cls-4" d="M36.79,52.01l-1.94,2.09c-3.03,3.28-8.15,3.47-11.42.43L4.09,36.59c-3.28-3.04-3.46-8.15-.43-11.42L23.21,4.09c3.04-3.28,8.15-3.46,11.42-.43l2.4,2.23"/>
    <path class="cls-1" d="M46.04,5.9l2.01-2.01c3.16-3.16,8.28-3.16,11.43,0l20.33,20.33c3.16,3.15,3.16,8.27,0,11.42l-18.66,18.67c-3.15,3.15-8.27,3.15-11.43,0l-2.52-2.52"/>
  </g>
  <g>
    <circle class="cls-3" cx="42.78" cy="28.97" r="23.51"/>
    <path class="cls-2" d="M61.52,24.66l-25.57-12.57c-3.19-1.57-6.91.75-6.91,4.31v25.13c0,3.55,3.73,5.87,6.91,4.31l25.57-12.57c3.58-1.76,3.58-6.85,0-8.61Z"/>
  </g>
</svg>