<?xml version="1.0" encoding="UTF-8"?>
<svg id="Layer_1" data-name="Layer 1" xmlns="http://www.w3.org/2000/svg" viewBox="0 0 364.67 200.33">
  <defs>
    <style>
      .cls-1 {
        stroke: #30a84b;
        stroke-width: .5px;
      }

      .cls-1, .cls-2, .cls-3, .cls-4, .cls-5 {
        fill: none;
        stroke-miterlimit: 10;
      }

      .cls-2 {
        stroke: #f2ba1a;
      }

      .cls-2, .cls-3, .cls-4, .cls-5 {
        stroke-width: 1.5px;
      }

      .cls-6 {
        fill: #e94535;
      }

      .cls-6, .cls-7, .cls-8, .cls-9 {
        stroke-width: 0px;
      }

      .cls-7, .cls-10 {
        fill: #547ec0;
      }

      .cls-8, .cls-11 {
        fill: #f2ba1a;
      }

      .cls-11 {
        font-size: 35.57px;
      }

      .cls-11, .cls-12, .cls-10 {
        font-family: Microsoft-Himalaya, 'Microsoft Himalaya';
      }

      .cls-13 {
        fill: #ea4634;
        font-family: Consolas, Consolas;
        font-size: 41.53px;
      }

      .cls-3 {
        stroke: #e94535;
      }

      .cls-9 {
        fill: #32a84e;
      }

      .cls-12 {
        fill: #32a84c;
        font-size: 40.39px;
      }

      .cls-4 {
        stroke: #547dbf;
      }

      .cls-10 {
        font-size: 44.47px;
      }

      .cls-5 {
        stroke: #32a84e;
      }
    </style>
  </defs>
  <g>
    <g>
      <rect class="cls-4" x="110.8" y="155.02" width="41.41" height="39.23" rx="7.27" ry="7.27"/>
      <text class="cls-10" transform="translate(113.47 181.59)"><tspan x="0" y="0">{ }</tspan></text>
    </g>
    <g>
      <rect class="cls-5" x="157.28" y="155.16" width="41.41" height="39.23" rx="7.27" ry="7.27"/>
      <text class="cls-12" transform="translate(161.56 183.83) scale(.88 1)"><tspan x="0" y="0">&lt; &gt;</tspan></text>
    </g>
    <g>
      <rect class="cls-3" x="204.02" y="155.02" width="41.41" height="39.23" rx="19.61" ry="19.61"/>
      <text class="cls-13" transform="translate(214.87 181.59)"><tspan x="0" y="0">;</tspan></text>
    </g>
    <g>
      <rect class="cls-1" x="250.77" y="155.02" width="41.41" height="39.23" rx="7.27" ry="7.27"/>
      <path class="cls-2" d="M286.22,168.28l-25.48-12.52c-4.6-2.26-9.97,1.09-9.97,6.21v25.04c0,5.12,5.37,8.47,9.97,6.21l25.48-12.52c5.16-2.53,5.16-9.89,0-12.42Z"/>
      <text class="cls-11" transform="translate(259.55 180.94)"><tspan x="0" y="0">/ \</tspan></text>
    </g>
  </g>
  <g>
    <path class="cls-7" d="M232.32,11.47c55.94,10.9,103.65,31.24,132.34,53.99-24.55-25.2-71.63-47.91-128.09-58.92-45.89-8.95-88.92-8.4-120.73-.29,32.51-4.56,73.28-3.2,116.48,5.22Z"/>
    <circle class="cls-9" cx="82.4" cy="15.46" r="12.77"/>
    <circle class="cls-6" cx="40.91" cy="29.76" r="10.51"/>
    <circle class="cls-8" cx="8.19" cy="46.75" r="8.19"/>
    <g>
      <path class="cls-7" d="M42.39,82.03c-8.51,4.43-11.92,12.26-11.92,27.75,0,22.82,7.15,30.31,28.61,30.48,9.19.17,14.13-.68,19.07-3.24,7.83-4.09,8.34-5.45,2.89-9.02-3.41-2.21-4.43-2.21-7.15-.17-3.75,2.72-23.33,3.24-28.09.68-7.32-3.92-8.34-29.12-1.53-35.93,4.09-4.09,22.31-4.94,28.95-1.53,1.87,1.02,3.58.34,5.62-2.04,2.89-3.24,2.89-3.75.34-6.3-4.43-4.26-28.95-4.77-36.78-.68Z"/>
      <path class="cls-7" d="M102.16,82.03c-7.83,3.92-12.09,13.45-12.09,27.75,0,13.28,3.58,21.28,11.75,26.73,4.77,3.24,8.17,3.92,18.56,3.92,21.28,0,29.29-8.51,29.29-31.16-.17-13.96-4.43-23.5-12.43-27.24-8-3.92-27.24-3.75-35.08,0ZM136.04,92.76c2.89,2.89,3.41,5.62,3.41,17.03,0,18.39-2.04,20.43-19.41,20.43-11.75,0-12.94-.34-16.18-4.43-2.89-3.58-3.58-6.98-3.58-16.01s.68-12.43,3.58-16.01c3.24-4.09,4.43-4.43,16.18-4.43,10.39,0,13.28.68,16.01,3.41Z"/>
      <path class="cls-7" d="M158.17,109.62v30.82l15.83-.17c29.29-.17,37.8-6.98,37.8-30.48-.17-23.67-6.47-29.29-35.25-30.31l-18.39-.68v30.82ZM194.78,91.74c4.94,2.21,5.79,3.41,6.81,10.22.68,4.26.68,11.41,0,15.66-1.02,6.81-1.87,8-6.81,10.22-3.24,1.36-10.56,2.38-16.18,2.38h-10.22v-40.86h10.22c5.62,0,12.94,1.02,16.18,2.38Z"/>
      <path class="cls-7" d="M221.17,79.31c-.17.34-.34,14.3-.51,30.99l-.34,30.14h16.18c27.58,0,37.46-8,37.46-30.31,0-13.11-3.06-20.77-10.22-25.88-4.94-3.41-8.17-4.09-24.18-4.77-10.05-.51-18.39-.51-18.39-.17ZM260.34,93.61c2.89,2.55,3.41,5.28,3.41,16.18,0,17.2-1.87,19.07-20.26,20.09l-13.45.68-.17-20.77v-20.94l13.45.85c9.88.51,14.47,1.7,17.03,3.92Z"/>
      <path class="cls-7" d="M308.01,109.62v30.82h14.64c17.54,0,26.22-2.21,32.01-8.34,5.62-5.96,8.34-19.24,6.13-30.82-3.24-17.2-8.85-20.77-34.39-21.79l-18.39-.85v30.99ZM347.68,94.29c3.06,3.06,3.75,5.62,3.75,15.49,0,16.69-2.89,19.41-20.77,19.41l-13.11.17.34-19.58c0-10.73.17-19.92.34-20.26,0-.34,5.79-.17,12.94.17,10.22.68,13.62,1.7,16.52,4.6Z"/>
      <path class="cls-6" d="M272.22,133.95c2.04.08,4.01-.1,5.93-.54s3.6-1.09,5.06-1.95,2.62-1.93,3.5-3.2,1.32-2.73,1.32-4.37-.29-3.03-.87-4.07-1.23-2-1.95-2.87-1.37-1.82-1.95-2.81-.87-2.33-.87-4.01c0-.84.16-1.72.48-2.63s.81-1.76,1.47-2.51c.66-.76,1.5-1.38,2.51-1.86s2.22-.72,3.62-.72,2.74.29,4.04.87,2.43,1.47,3.41,2.66,1.76,2.69,2.33,4.49.87,3.91.87,6.35c0,3.31-.61,6.49-1.83,9.55s-3.03,5.76-5.45,8.11-5.43,4.23-9.04,5.63-7.81,2.1-12.6,2.1v-8.2ZM290.95,79.23c1.24,0,2.41.25,3.53.75s2.1,1.17,2.93,2.01,1.51,1.82,2.01,2.93.75,2.29.75,3.53-.25,2.46-.75,3.56-1.17,2.07-2.01,2.9-1.82,1.5-2.93,1.98-2.29.72-3.53.72-2.46-.24-3.56-.72-2.07-1.14-2.9-1.98-1.5-1.81-1.98-2.9-.72-2.28-.72-3.56.24-2.41.72-3.53,1.14-2.1,1.98-2.93,1.81-1.51,2.9-2.01,2.28-.75,3.56-.75Z"/>
    </g>
  </g>
</svg>