<?xml version="1.0" encoding="UTF-8"?>
<svg id="Layer_1" data-name="Layer 1" xmlns="http://www.w3.org/2000/svg" viewBox="0 0 235.75 63.1">
  <defs>
    <style>
      .cls-1 {
        stroke: #31a84e;
      }

      .cls-1, .cls-2, .cls-3, .cls-4 {
        fill: none;
        stroke-miterlimit: 10;
        stroke-width: 3px;
      }

      .cls-5 {
        fill: #e94535;
      }

      .cls-5, .cls-6, .cls-7, .cls-8 {
        stroke-width: 0px;
      }

      .cls-6 {
        fill: #547ec0;
      }

      .cls-2 {
        stroke: #f4bb19;
      }

      .cls-7 {
        fill: #f2ba1a;
      }

      .cls-3 {
        stroke: #ea4435;
      }

      .cls-4 {
        stroke: #547dbf;
      }

      .cls-8 {
        fill: #32a84e;
      }
    </style>
  </defs>
  <g>
    <g>
      <path class="cls-4" d="M36.79,56.91l-1.94,2.09c-3.03,3.28-8.15,3.47-11.42.43L4.09,41.49c-3.28-3.04-3.46-8.15-.43-11.42L23.21,8.99c3.04-3.28,8.15-3.46,11.42-.43l2.4,2.23"/>
      <path class="cls-1" d="M46.04,10.8l2.01-2.01c3.16-3.16,8.28-3.16,11.43,0l20.33,20.33c3.16,3.15,3.16,8.27,0,11.42l-18.66,18.67c-3.15,3.15-8.27,3.15-11.43,0l-2.52-2.52"/>
    </g>
    <g>
      <circle class="cls-3" cx="42.78" cy="33.87" r="23.51"/>
      <path class="cls-2" d="M61.52,29.57l-25.57-12.57c-3.19-1.57-6.91.75-6.91,4.31v25.13c0,3.55,3.73,5.87,6.91,4.31l25.57-12.57c3.58-1.76,3.58-6.85,0-8.61Z"/>
    </g>
  </g>
  <g>
    <path class="cls-6" d="M180.02,4.83c23.56,4.59,43.65,13.16,55.73,22.74-10.34-10.61-30.16-20.18-53.94-24.81-19.32-3.77-37.45-3.54-50.84-.12,13.69-1.92,30.86-1.35,49.05,2.2Z"/>
    <circle class="cls-8" cx="116.88" cy="6.51" r="5.38"/>
    <circle class="cls-5" cx="99.4" cy="12.53" r="4.43"/>
    <circle class="cls-7" cx="85.63" cy="19.69" r="3.45"/>
    <g>
      <path class="cls-6" d="M100.03,34.55c-3.59,1.86-5.02,5.16-5.02,11.69,0,9.61,3.01,12.76,12.05,12.84,3.87.07,5.95-.29,8.03-1.36,3.3-1.72,3.51-2.29,1.22-3.8-1.43-.93-1.86-.93-3.01-.07-1.58,1.15-9.82,1.36-11.83.29-3.08-1.65-3.51-12.26-.65-15.13,1.72-1.72,9.39-2.08,12.19-.65.79.43,1.51.14,2.37-.86,1.22-1.36,1.22-1.58.14-2.65-1.86-1.79-12.19-2.01-15.49-.29Z"/>
      <path class="cls-6" d="M125.2,34.55c-3.3,1.65-5.09,5.66-5.09,11.69,0,5.59,1.51,8.96,4.95,11.26,2.01,1.36,3.44,1.65,7.82,1.65,8.96,0,12.33-3.59,12.33-13.12-.07-5.88-1.86-9.9-5.23-11.47-3.37-1.65-11.47-1.58-14.77,0ZM139.47,39.06c1.22,1.22,1.43,2.37,1.43,7.17,0,7.74-.86,8.6-8.17,8.6-4.95,0-5.45-.14-6.81-1.86-1.22-1.51-1.51-2.94-1.51-6.74s.29-5.23,1.51-6.74c1.36-1.72,1.86-1.86,6.81-1.86,4.37,0,5.59.29,6.74,1.43Z"/>
      <path class="cls-6" d="M148.79,46.16v12.98l6.67-.07c12.33-.07,15.92-2.94,15.92-12.84-.07-9.97-2.72-12.33-14.84-12.76l-7.74-.29v12.98ZM164.21,38.63c2.08.93,2.44,1.43,2.87,4.3.29,1.79.29,4.8,0,6.6-.43,2.87-.79,3.37-2.87,4.3-1.36.57-4.45,1-6.81,1h-4.3v-17.21h4.3c2.37,0,5.45.43,6.81,1Z"/>
      <path class="cls-6" d="M175.32,33.4c-.07.14-.14,6.02-.22,13.05l-.14,12.69h6.81c11.62,0,15.78-3.37,15.78-12.76,0-5.52-1.29-8.75-4.3-10.9-2.08-1.43-3.44-1.72-10.18-2.01-4.23-.22-7.74-.22-7.74-.07ZM191.81,39.42c1.22,1.08,1.43,2.22,1.43,6.81,0,7.24-.79,8.03-8.53,8.46l-5.66.29-.07-8.75v-8.82l5.66.36c4.16.22,6.09.72,7.17,1.65Z"/>
      <path class="cls-6" d="M211.89,46.16v12.98h6.17c7.39,0,11.04-.93,13.48-3.51,2.37-2.51,3.51-8.1,2.58-12.98-1.36-7.24-3.73-8.75-14.48-9.18l-7.74-.36v13.05ZM228.6,39.71c1.29,1.29,1.58,2.37,1.58,6.53,0,7.03-1.22,8.17-8.75,8.17l-5.52.07.14-8.25c0-4.52.07-8.39.14-8.53,0-.14,2.44-.07,5.45.07,4.3.29,5.74.72,6.96,1.94Z"/>
      <path class="cls-5" d="M196.82,56.03c.86.03,1.69-.04,2.5-.23s1.52-.46,2.13-.82,1.1-.81,1.47-1.35.55-1.15.55-1.84-.12-1.28-.37-1.71-.52-.84-.82-1.21-.58-.76-.82-1.18-.37-.98-.37-1.69c0-.35.07-.72.2-1.11s.34-.74.62-1.06c.28-.32.63-.58,1.06-.78s.94-.3,1.53-.3,1.16.12,1.7.37,1.03.62,1.44,1.12.74,1.13.98,1.89.37,1.65.37,2.67c0,1.39-.26,2.74-.77,4.02s-1.28,2.42-2.29,3.42-2.29,1.78-3.81,2.37-3.29.88-5.31.88v-3.45ZM204.71,32.99c.52,0,1.02.11,1.49.32s.88.49,1.24.84.63.76.84,1.24.32.97.32,1.49-.11,1.04-.32,1.5-.49.87-.84,1.22-.76.63-1.24.83-.97.3-1.49.3-1.04-.1-1.5-.3-.87-.48-1.22-.83-.63-.76-.83-1.22-.3-.96-.3-1.5.1-1.02.3-1.49.48-.88.83-1.24.76-.63,1.22-.84.96-.32,1.5-.32Z"/>
    </g>
  </g>
</svg>