<?xml version="1.0" encoding="UTF-8"?>
<svg id="Layer_1" data-name="Layer 1" xmlns="http://www.w3.org/2000/svg" viewBox="0 0 247.23 68.6">
  <defs>
    <style>
      .cls-1 {
        stroke: #31a84e;
      }

      .cls-1, .cls-2, .cls-3, .cls-4, .cls-5 {
        fill: none;
        stroke-miterlimit: 10;
      }

      .cls-1, .cls-2, .cls-3, .cls-5 {
        stroke-width: 3px;
      }

      .cls-2 {
        stroke: #f4bb19;
      }

      .cls-3 {
        stroke: #ea4435;
      }

      .cls-6 {
        fill: #30a84d;
        font-size: 54.5px;
      }

      .cls-6, .cls-7, .cls-8 {
        font-family: Microsoft-Himalaya, 'Microsoft Himalaya';
      }

      .cls-7 {
        fill: #547dbf;
        font-size: 60px;
      }

      .cls-4 {
        stroke: #30a84c;
        stroke-width: 2px;
      }

      .cls-9 {
        fill: #ea4435;
        font-family: Consolas, Consolas;
      }

      .cls-9, .cls-8 {
        font-size: 48px;
      }

      .cls-5 {
        stroke: #547dbf;
      }

      .cls-8 {
        fill: #f3bb1a;
      }
    </style>
  </defs>
  <g>
    <rect class="cls-5" x="1.5" y="7.45" width="55.87" height="52.93" rx="10.05" ry="10.05"/>
    <text class="cls-7" transform="translate(5.11 43.32)"><tspan x="0" y="0">{ }</tspan></text>
  </g>
  <g>
    <rect class="cls-1" x="64.21" y="7.65" width="55.87" height="52.93" rx="10.05" ry="10.05"/>
    <text class="cls-6" transform="translate(69.99 46.33) scale(.88 1)"><tspan x="0" y="0">&lt; &gt;</tspan></text>
  </g>
  <g>
    <rect class="cls-3" x="127.28" y="7.45" width="55.87" height="52.93" rx="26.47" ry="26.47"/>
    <text class="cls-9" transform="translate(143.3 41.24)"><tspan x="0" y="0">;</tspan></text>
  </g>
  <g>
    <g>
      <rect class="cls-4" x="190.35" y="7.45" width="55.87" height="52.93" rx="10.05" ry="10.05"/>
      <path class="cls-2" d="M237.58,25.04l-33.29-16.36c-6.43-3.16-13.94,1.52-13.94,8.68v32.72c0,7.16,7.51,11.84,13.94,8.68l33.29-16.36c7.21-3.54,7.21-13.82,0-17.36Z"/>
    </g>
    <text class="cls-8" transform="translate(205.32 42.44)"><tspan x="0" y="0">/ \</tspan></text>
  </g>
</svg>